<svg xmlns="http://www.w3.org/2000/svg">
  <symbol id="icon-arrow-right" viewBox="0 96 960 960">
    <path d="m561 814-43-42 168-168H160v-60h526L517 375l43-42 241 241-240 240Z" />
  </symbol>
  <symbol id="icon-close" viewBox="0 96 960 960">
    <path d="m249 849-42-42 231-231-231-231 42-42 231 231 231-231 42 42-231 231 231 231-42 42-231-231-231 231Z" />
  </symbol>
  <symbol id="icon-menu" viewBox="0 96 960 960">
    <path d="M120 816v-60h720v60H120Zm0-210v-60h720v60H120Zm0-210v-60h720v60H120Z" />
  </symbol>
</svg>
